<svg width="76" height="75" viewBox="0 0 76 75" fill="none" xmlns="http://www.w3.org/2000/svg">
<g clip-path="url(#clip0_174_977)">
<path d="M68.0449 17.767H66.3776V16.0999C66.3776 12.1751 63.1848 8.98218 59.26 8.98218H8.16925C4.24449 8.98218 1.05157 12.1752 1.05157 16.0999V49.5403C1.05157 53.4649 4.24461 56.658 8.16925 56.658H9.83641V58.3251C9.83641 62.2499 13.0295 65.4428 16.9541 65.4428H68.0446C71.9694 65.4428 75.1624 62.2499 75.1624 58.3251V24.8847C75.1623 20.9599 71.9695 17.767 68.0449 17.767ZM69.9177 58.325C69.9177 59.3595 69.0791 60.1981 68.0447 60.1981H16.9541C15.9196 60.1981 15.081 59.3595 15.081 58.325V56.6579V54.0356V51.4133V24.8847C15.081 23.8501 15.9196 23.0116 16.9541 23.0116H61.133H63.7553H66.3776H68.0449C69.0792 23.0116 69.9178 23.8502 69.9178 24.8847V58.325H69.9177ZM6.29618 49.5402V16.0999C6.29618 15.0654 7.13478 14.2268 8.16925 14.2268H59.26C60.2944 14.2268 61.133 15.0654 61.133 16.0999V17.767H16.9541C13.0295 17.767 9.83641 20.96 9.83641 24.8847V51.4133H8.16937C7.13478 51.4133 6.29618 50.5747 6.29618 49.5402Z" fill="#00AC4E"/>
<path d="M68.0452 65.5046H16.9546C12.9961 65.5046 9.77567 62.2841 9.77567 58.3257V56.7197H8.16985C4.21142 56.7197 0.990952 53.4993 0.990952 49.5409V16.1005C0.990952 12.1421 4.21142 8.92163 8.16985 8.92163H59.2606C63.2189 8.92163 66.4394 12.1421 66.4394 16.1005V17.7065H68.0454C72.0038 17.7065 75.2242 20.9269 75.2242 24.8853V58.3257C75.2241 62.2841 72.0038 65.5046 68.0452 65.5046ZM8.16985 9.04393C4.27887 9.04393 1.11337 12.2095 1.11337 16.1005V49.541C1.11337 53.4318 4.27887 56.5974 8.16985 56.5974H9.89822V58.3258C9.89822 62.2167 13.0637 65.3823 16.9547 65.3823H68.0452C71.9362 65.3823 75.1018 62.2168 75.1018 58.3258V24.8853C75.1018 20.9944 71.9364 17.8289 68.0454 17.8289H66.317V16.1005C66.317 12.2095 63.1516 9.04405 59.2606 9.04405H8.16985V9.04393ZM68.0454 60.26H16.9547C15.8881 60.26 15.0204 59.3922 15.0204 58.3257V24.8853C15.0204 23.8188 15.8881 22.9511 16.9547 22.9511H68.0454C69.112 22.9511 69.9796 23.8188 69.9796 24.8853V58.3257C69.9795 59.3922 69.1119 60.26 68.0454 60.26ZM16.9547 23.0735C15.9556 23.0735 15.1428 23.8864 15.1428 24.8853V58.3257C15.1428 59.3248 15.9556 60.1375 16.9547 60.1375H68.0454C69.0444 60.1375 69.8572 59.3248 69.8572 58.3257V24.8853C69.8572 23.8863 69.0444 23.0735 68.0454 23.0735H16.9547ZM9.89822 51.4751H8.16997C7.10342 51.4751 6.23556 50.6074 6.23556 49.5409V16.1005C6.23556 15.034 7.1033 14.1662 8.16985 14.1662H59.2606C60.3272 14.1662 61.1948 15.034 61.1948 16.1005V17.8289H16.9547C13.0637 17.8289 9.89822 20.9944 9.89822 24.8853V51.4751ZM8.16985 14.2885C7.17075 14.2885 6.35799 15.1013 6.35799 16.1004V49.5409C6.35799 50.5398 7.17088 51.3527 8.16997 51.3527H9.77592V24.8853C9.77592 20.9269 12.9964 17.7065 16.9548 17.7065H61.0725V16.1005C61.0725 15.1014 60.2597 14.2887 59.2607 14.2887H8.16985V14.2885Z" fill="#00AC4E"/>
<path d="M62.4512 52.4315L60.7255 50.7057L52.3699 42.3501C51.6384 41.6185 50.4525 41.6185 49.721 42.3501L44.973 47.0979L36.1034 38.2283C35.3719 37.4967 34.1858 37.4967 33.4545 38.2283L20.2696 51.4131L19.2511 52.4315C18.814 52.8686 18.6383 53.4677 18.7234 54.0354C18.7808 54.4178 18.9565 54.7861 19.2511 55.0805L20.3108 56.1401C20.59 56.4193 20.9356 56.5916 21.2968 56.6577C21.5204 56.6986 21.75 56.6986 21.9735 56.6577C22.3348 56.5917 22.6804 56.4195 22.9596 56.1401L25.0643 54.0354L27.6866 51.4131L33.4544 45.6454C34.1858 44.9138 35.3719 44.9138 36.1032 45.6454L41.8708 51.4131L44.4931 54.0354L46.598 56.1401C46.8772 56.4193 47.2228 56.5916 47.5841 56.6577C47.8076 56.6986 48.0372 56.6986 48.2607 56.6577C48.622 56.5917 48.9675 56.4195 49.2468 56.1401L50.3065 55.0805C50.6008 54.786 50.7766 54.4178 50.834 54.0354C50.9191 53.4677 50.7437 52.8687 50.3065 52.4315L49.288 51.4131L48.6816 50.8066L51.0452 48.4427L54.0157 51.4131L56.638 54.0354L58.7426 56.1401C59.0065 56.4039 59.3299 56.5721 59.6693 56.6456C60.1143 56.7419 60.5873 56.6748 60.9929 56.4441C61.1356 56.3628 61.27 56.2619 61.3917 56.1402L62.4512 55.0806C63.1381 54.3939 63.1799 53.3064 62.5771 52.5706C62.5377 52.5227 62.4958 52.4763 62.4512 52.4315Z" fill="#00AC4E"/>
<path d="M47.9231 56.7503C47.8062 56.7503 47.6886 56.7395 47.5737 56.7186C47.1863 56.6478 46.8343 56.463 46.5554 56.1841L36.0605 45.6893C35.7183 45.347 35.2633 45.1586 34.7794 45.1586C34.2954 45.1586 33.8404 45.347 33.4982 45.6893L23.0035 56.1841C22.7247 56.463 22.3725 56.6478 21.9852 56.7186C21.7554 56.7605 21.5163 56.7605 21.2864 56.7186C20.899 56.6478 20.5469 56.463 20.268 56.1841L19.2084 55.1245C18.9137 54.83 18.7253 54.4567 18.6634 54.0452C18.5727 53.4402 18.7764 52.821 19.2084 52.3891L33.4118 38.1858C33.7771 37.8205 34.2629 37.6193 34.7795 37.6193C35.2961 37.6193 35.7819 37.8205 36.1472 38.1858L44.9737 47.0123L49.6784 42.3077C50.0437 41.9424 50.5294 41.7411 51.0461 41.7411C51.5628 41.7411 52.0485 41.9424 52.4138 42.3077L62.4951 52.3891C62.5397 52.4337 62.5835 52.4819 62.6251 52.5323C63.2575 53.3041 63.2015 54.4184 62.4951 55.1247L61.4357 56.1842C61.3135 56.3064 61.1749 56.4119 61.0238 56.498C60.7341 56.663 60.4038 56.7502 60.0684 56.7502C60.0683 56.7502 60.0683 56.7502 60.0683 56.7502C59.9302 56.7502 59.7919 56.7355 59.6572 56.7062C59.2941 56.6278 58.9632 56.4473 58.7001 56.1842L51.0461 48.5302L48.769 50.8075L50.3507 52.3892C50.7825 52.821 50.9861 53.4402 50.8954 54.0454C50.8337 54.4566 50.6454 54.8297 50.3507 55.1247L49.291 56.1842C49.0122 56.4631 48.6601 56.648 48.2727 56.7187C48.1575 56.7395 48.04 56.7503 47.9231 56.7503ZM34.7795 45.0361C35.2961 45.0361 35.7819 45.2374 36.1472 45.6027L46.642 56.0975C46.9033 56.3588 47.2331 56.5319 47.5958 56.5981C47.8111 56.6376 48.0353 56.6376 48.2506 56.5981C48.6133 56.5319 48.9431 56.3588 49.2044 56.0975L50.2641 55.038C50.54 54.7618 50.7164 54.4123 50.7743 54.027C50.8593 53.4601 50.6685 52.8801 50.2641 52.4755L48.5958 50.8073L51.046 48.3569L58.7867 56.0975C59.0332 56.344 59.3431 56.5131 59.6831 56.5865C60.1162 56.68 60.5802 56.6095 60.9634 56.3915C61.1049 56.3109 61.2348 56.2119 61.3491 56.0975L62.4086 55.038C63.0701 54.3765 63.1225 53.3326 62.5305 52.61C62.4914 52.5627 62.4504 52.5174 62.4086 52.4755L52.3273 42.3941C51.9851 42.0518 51.53 41.8634 51.0461 41.8634C50.5622 41.8634 50.1071 42.0518 49.7649 42.3941L44.9737 47.1853L36.0606 38.2723C35.7185 37.93 35.2634 37.7416 34.7795 37.7416C34.2955 37.7416 33.8406 37.93 33.4983 38.2723L19.295 52.4755C18.8904 52.8801 18.6997 53.4602 18.7848 54.027C18.8426 54.4124 19.0191 54.762 19.295 55.038L20.3547 56.0975C20.616 56.3588 20.9458 56.5319 21.3085 56.5981C21.524 56.6376 21.748 56.6376 21.9634 56.5981C22.3261 56.5319 22.656 56.3588 22.9172 56.0975L33.4119 45.6027C33.7771 45.2374 34.2629 45.0361 34.7795 45.0361Z" fill="#00AC4E"/>
<path d="M61.1329 26.2902C60.316 25.9693 59.427 25.7928 58.4979 25.7928C54.5129 25.7928 51.2709 29.0349 51.2709 33.0197C51.2709 37.0047 54.5129 40.2466 58.4979 40.2466C59.4271 40.2466 60.3162 40.0702 61.1329 39.7492C62.1353 39.3552 63.0287 38.7436 63.7552 37.9728C64.9756 36.6783 65.7247 34.935 65.7247 33.0197C65.7247 31.1045 64.9756 29.3611 63.7552 28.0666C63.0287 27.2958 62.1351 26.6841 61.1329 26.2902ZM58.4976 35.002C57.403 35.002 56.5154 34.1144 56.5154 33.0197C56.5154 31.925 57.403 31.0376 58.4976 31.0376C59.5924 31.0376 60.48 31.9251 60.48 33.0197C60.4801 34.1144 59.5925 35.002 58.4976 35.002Z" fill="#00AC4E"/>
<path d="M58.4985 40.3083C54.4797 40.3083 51.2103 37.0389 51.2103 33.0203C51.2103 29.0016 54.4797 25.7322 58.4985 25.7322C59.4145 25.7322 60.3087 25.901 61.1558 26.2339C62.1492 26.6242 63.0637 27.2436 63.8004 28.0252C65.0812 29.3838 65.7866 31.1577 65.7866 33.0203C65.7866 34.8828 65.0812 36.6567 63.8004 38.0154C63.0639 38.7968 62.1496 39.4161 61.1558 39.8068C60.3088 40.1395 59.4149 40.3083 58.4985 40.3083ZM58.4985 25.8546C54.5473 25.8546 51.3327 29.0691 51.3327 33.0203C51.3327 36.9715 54.5473 40.1859 58.4985 40.1859C59.3993 40.1859 60.2783 40.02 61.1112 39.6927C62.088 39.3088 62.987 38.6998 63.7112 37.9314C64.9705 36.5955 65.6641 34.8515 65.6641 33.0203C65.6641 31.1891 64.9705 29.4449 63.7112 28.1091C62.9869 27.3407 62.0877 26.7316 61.1112 26.3478C60.2782 26.0206 59.3993 25.8546 58.4985 25.8546ZM58.4983 35.0639C57.3715 35.0639 56.4549 34.1472 56.4549 33.0204C56.4549 31.8936 57.3715 30.977 58.4983 30.977C59.6252 30.977 60.5419 31.8937 60.5419 33.0204C60.542 34.1472 59.6252 35.0639 58.4983 35.0639ZM58.4983 31.0993C57.4391 31.0993 56.5773 31.9611 56.5773 33.0203C56.5773 34.0796 57.4391 34.9413 58.4983 34.9413C59.5576 34.9413 60.4195 34.0795 60.4195 33.0203C60.4196 31.9611 59.5577 31.0993 58.4983 31.0993Z" fill="#00AC4E"/>
</g>
<defs>
<clipPath id="clip0_174_977">
<rect width="74.2331" height="74.2331" fill="white" transform="translate(0.990898 0.0965576)"/>
</clipPath>
</defs>
</svg>
