<svg width="12" height="10" viewBox="0 0 12 10" fill="none" xmlns="http://www.w3.org/2000/svg">
<path fill-rule="evenodd" clip-rule="evenodd" d="M1.76717 0.236816H10.825C11.3808 0.236816 11.8314 0.687409 11.8314 1.24324V8.28822C11.8314 8.84406 11.3808 9.29465 10.825 9.29465H1.76717C1.21133 9.29465 0.760742 8.84406 0.760742 8.28822V1.24324C0.760742 0.687409 1.21133 0.236816 1.76717 0.236816ZM4.37686 4.87208C3.17796 4.27257 1.76729 5.14438 1.76729 6.48482C1.76729 7.48066 2.57458 8.28795 3.57042 8.28795H9.02203C10.0178 8.28795 10.8251 7.48067 10.8251 6.48485C10.8251 5.14446 9.41454 4.27267 8.21566 4.87211L7.36534 5.29727C6.6923 5.63379 5.90009 5.63377 5.22706 5.29722L4.37686 4.87208ZM1.76729 1.98398C1.76729 2.26464 1.92586 2.52122 2.17689 2.64674L4.27081 3.69381C5.54582 4.33138 7.04662 4.33141 8.32166 3.69389L10.4154 2.647C10.6665 2.52146 10.8251 2.26483 10.8251 1.98411C10.8251 1.57479 10.4933 1.24297 10.084 1.24297H2.5083C2.09905 1.24297 1.76729 1.57473 1.76729 1.98398Z" fill="#C6C6C6"/>
</svg>
