<svg width="14" height="14" viewBox="0 0 14 14" fill="none" xmlns="http://www.w3.org/2000/svg">
<path fill-rule="evenodd" clip-rule="evenodd" d="M9.98395 12.1154C9.89472 12.1154 9.80492 12.0945 9.72247 12.0516L6.84269 10.547L3.96348 12.0516C3.77258 12.1504 3.54216 12.1335 3.36934 12.007C3.19539 11.8805 3.10898 11.6664 3.14569 11.4546L3.69408 8.2761L1.36722 6.02548C1.21247 5.87581 1.15656 5.65103 1.22264 5.44546C1.28871 5.24101 1.46549 5.09134 1.67897 5.06085L4.89818 4.59321L6.33722 1.69819C6.52811 1.31414 7.15783 1.31414 7.34873 1.69819L8.78777 4.59321L12.007 5.06085C12.2205 5.09134 12.3972 5.24101 12.4633 5.44546C12.5294 5.65103 12.4735 5.87581 12.3187 6.02548L9.99186 8.2761L10.5403 11.4546C10.577 11.6664 10.49 11.8805 10.3166 12.007C10.2183 12.0793 10.1014 12.1154 9.98395 12.1154Z" fill="black"/>
<mask id="mask0_175_1302" style="mask-type:alpha" maskUnits="userSpaceOnUse" x="1" y="1" width="12" height="12">
<path fill-rule="evenodd" clip-rule="evenodd" d="M9.98395 12.1154C9.89472 12.1154 9.80492 12.0945 9.72247 12.0516L6.84269 10.547L3.96348 12.0516C3.77258 12.1504 3.54216 12.1335 3.36934 12.007C3.19539 11.8805 3.10898 11.6664 3.14569 11.4546L3.69408 8.2761L1.36722 6.02548C1.21247 5.87581 1.15656 5.65103 1.22264 5.44546C1.28871 5.24101 1.46549 5.09134 1.67897 5.06085L4.89818 4.59321L6.33722 1.69819C6.52811 1.31414 7.15783 1.31414 7.34873 1.69819L8.78777 4.59321L12.007 5.06085C12.2205 5.09134 12.3972 5.24101 12.4633 5.44546C12.5294 5.65103 12.4735 5.87581 12.3187 6.02548L9.99186 8.2761L10.5403 11.4546C10.577 11.6664 10.49 11.8805 10.3166 12.007C10.2183 12.0793 10.1014 12.1154 9.98395 12.1154Z" fill="white"/>
</mask>
<g mask="url(#mask0_175_1302)">
<rect x="0.0654297" y="0.254639" width="13.5545" height="13.5545" fill="#00AC4E"/>
</g>
</svg>
