<svg width="13" height="13" viewBox="0 0 13 13" fill="none" xmlns="http://www.w3.org/2000/svg">
<path fill-rule="evenodd" clip-rule="evenodd" d="M8.93749 11.0662C8.85801 11.0662 8.77802 11.0476 8.70457 11.0094L6.13935 9.66915L3.57463 11.0094C3.40459 11.0974 3.19933 11.0823 3.04539 10.9696C2.89044 10.8569 2.81347 10.6663 2.84617 10.4776L3.33466 7.64625L1.26196 5.64147C1.12411 5.50815 1.07431 5.30792 1.13317 5.1248C1.19203 4.94268 1.34949 4.80937 1.53966 4.7822L4.40723 4.36565L5.68909 1.78685C5.85913 1.44475 6.42007 1.44475 6.59011 1.78685L7.87196 4.36565L10.7395 4.7822C10.9297 4.80937 11.0872 4.94268 11.146 5.1248C11.2049 5.30792 11.1551 5.50815 11.0172 5.64147L8.94454 7.64625L9.43303 10.4776C9.46573 10.6663 9.38826 10.8569 9.23381 10.9696C9.14627 11.034 9.04214 11.0662 8.93749 11.0662Z" fill="black"/>
<mask id="mask0_174_962" style="mask-type:alpha" maskUnits="userSpaceOnUse" x="1" y="1" width="11" height="11">
<path fill-rule="evenodd" clip-rule="evenodd" d="M8.93749 11.0662C8.85801 11.0662 8.77802 11.0476 8.70457 11.0094L6.13935 9.66915L3.57463 11.0094C3.40459 11.0974 3.19933 11.0823 3.04539 10.9696C2.89044 10.8569 2.81347 10.6663 2.84617 10.4776L3.33466 7.64625L1.26196 5.64147C1.12411 5.50815 1.07431 5.30792 1.13317 5.1248C1.19203 4.94268 1.34949 4.80937 1.53966 4.7822L4.40723 4.36565L5.68909 1.78685C5.85913 1.44475 6.42007 1.44475 6.59011 1.78685L7.87196 4.36565L10.7395 4.7822C10.9297 4.80937 11.0872 4.94268 11.146 5.1248C11.2049 5.30792 11.1551 5.50815 11.0172 5.64147L8.94454 7.64625L9.43303 10.4776C9.46573 10.6663 9.38826 10.8569 9.23381 10.9696C9.14627 11.034 9.04214 11.0662 8.93749 11.0662Z" fill="white"/>
</mask>
<g mask="url(#mask0_174_962)">
<rect x="0.102551" y="0.500977" width="12.074" height="12.074" fill="#00AC4E"/>
</g>
</svg>
